REM MD5 eacb9260e481d1c5107e47e31869e4a1
FILE "Euro Demo 90 (Europe).bin" BINARY
  TRACK 01 MODE2/2352
    INDEX 01 00:00:00
  TRACK 02 AUDIO
    INDEX 00 55:04:37
    INDEX 01 55:06:37
  TRACK 03 AUDIO
    INDEX 00 57:35:39
    INDEX 01 57:37:39
  TRACK 04 AUDIO
    INDEX 00 61:19:52
    INDEX 01 61:21:52
REM LEADOUT 64:23:09
